# xmcd
#
# Track frame offsets:
#	150
#	18347
#	36712
#	52015
#	70655
#	89498
#	111919
#	128052
#	144329
#	160831
#
# Disc length: 2380 seconds
#
# Revision: 5
# Processed by: cddbd v1.5.2PL0 Copyright (c) Steve Scherf et al.
# Submitted via: EasyCDDAExtractor 16.0.6.1
#
DISCID=8a094a0a
DTITLE=江蕙 - 世紀精選-CD2
DYEAR=1998
DGENRE=Country
TTITLE0=藝界人生
TTITLE1=愛到袂凍條
TTITLE2=愛不對人
TTITLE3=苦酒的探戈
TTITLE4=悲情歌聲
TTITLE5=秋雨彼一眠
TTITLE6=惜別的海岸
TTITLE7=不想伊
TTITLE8=相思夢
TTITLE9=一種感覺
EXTD=\n YEAR: 1998
EXTT0=
EXTT1=
EXTT2=
EXTT3=
EXTT4=
EXTT5=
EXTT6=
EXTT7=
EXTT8=
EXTT9=
PLAYORDER=
